<svg version="1.0" xmlns="http://www.w3.org/2000/svg" width="668" height="668" viewBox="0 0 501 501"><path d="M267.5 2.8c-6.3 3-19.6 12.7-25.3 18.3-3.3 3.2-3.5 3.3-14 3.6-63.7 1.9-123.9 31.5-164 80.6-12.7 15.5-25.6 37.3-32.3 54.2-1.2 3.3-2.6 6.3-2.9 6.8-.3.4-2.8.3-5.6-.2-2.7-.5-6.9-1.2-9.4-1.6-2.5-.3-6.2-1-8.3-1.5-3.2-.7-3.9-.5-4.5.8-.8 2.3-.8 48.7.1 63.7.7 12.2 2.1 23.9 3.3 26.9.3.9 1.8 1.6 3.3 1.7 3.2.1 8.4.9 8.9 1.4.2.2.6 2.1.8 4.2.4 3.6 2.2 15.4 3 19.8.2 1.1.9 4.1 1.5 6.7.9 4 .7 6.9-1.5 19-3.3 18.9-3.8 22.9-4.1 38.6l-.2 13.2 11.1 6c20.7 11.2 43.1 21.9 48.3 23.3 3.8.9 6.6 2.6 10 5.8 2.7 2.4 7.3 6.5 10.3 8.9 3 2.5 5.6 4.8 5.8 5.2.2.5 1 .8 1.8.8s1.4.4 1.4 1c0 .5.6 1 1.3 1 .8 0 2.2.9 3.2 2s2.1 1.7 2.5 1.5c.5-.3 1-.1 1.2.3.8 2 23.6 14.2 35.9 19.2l5.7 2.3.5 10.6c.3 5.8.8 11.7 1.1 13.1 2.6 11.6 3.6 13 15.4 19.9 13.4 7.8 38.6 17.2 52.6 19.6 6.1 1 15.1.7 19.7-.7 10.6-3.1 17.1-16.4 20.1-40.5 1.1-9 1.2-9.3 3.7-9.4 1.4 0 3.3-.2 4.1-.4.8-.2 3.3-.6 5.5-1 7.8-1.3 21.1-4.6 28.7-7.1 7-2.3 7.9-2.4 10.5-1 7.2 3.7 24.6 8.5 36.3 10.1 2.5.3 6.2.8 8.4 1.1 5.3.8 39 .7 44.6-.1 2.5-.4 5-1.1 5.7-1.6 4.5-3.8 20.2-31.1 24.9-43.5 3.2-8.2 3.7-20.2 1.1-27.2l-1.5-4.3 2.6 1.7c11.6 7.6 22.1 12.4 27.2 12.4 3.8 0 12.7-6.2 23.8-16.5 12.4-11.7 12.5-11.8 7.1-16.8-12.5-11.3-33.6-26.2-47.9-33.8-4.4-2.4-8-4.8-8-5.5 0-.6 1.9-5.8 4.1-11.5 2.3-5.6 4.2-11.3 4.2-12.6 0-1.3.4-2.6.8-2.9.5-.3.7-1 .4-1.5-.4-.5-.2-.9.3-.9s.8-1.6.7-3.5c-.1-1.9.3-3.5.8-3.5s.7-.7.3-1.5c-.3-.8 0-1.5.7-1.5.8 0 .6-.4-.3-1-1.2-.7-1.2-1-.1-1 .9 0 1.1-.8.7-2.5-.4-1.4-.3-2.5.1-2.5.5 0 .9-2.8 1-6.3.3-5.6.6-6.5 3.5-9 7.3-6.4 17.5-16.5 20.4-20.2 4-5.1 8.4-13.8 8.4-16.6 0-1.2-2.5-4.6-6.2-8.3-6.3-6.3-13.7-11.1-24.7-16.3-5.8-2.7-6.5-3.6-7.7-9-.1-.6-.7-2.8-1.4-4.8-1.2-3.7-1.2-3.8 3.7-8.9 6.2-6.4 13-14.7 17.1-20.8 2.5-3.6 3.2-5.7 3.2-9.5-.1-16.7-13.8-40.2-39.1-66.7l-9.4-9.8-3.4 3.3c-3.5 3.5-19.1 26.5-19.1 28.2 0 .6-3.9-2.8-8.7-7.4-4.9-4.6-11.4-10.5-14.6-12.9-4.8-3.8-5.7-4.9-5.2-7 .2-1.4.7-3.9 1-5.5.2-1.7 1.8-10.1 3.3-18.8l2.9-15.8-4.1-3.3c-10.1-8.2-21.2-13.2-38.8-17.5C320 2.2 310.3 1 290 .4l-16.5-.5-6 2.9z"/></svg>