<?xml version="1.0" standalone="no"?>
<!DOCTYPE svg PUBLIC "-//W3C//DTD SVG 20010904//EN"
 "http://www.w3.org/TR/2001/REC-SVG-20010904/DTD/svg10.dtd">
<svg version="1.0" xmlns="http://www.w3.org/2000/svg"
 width="501.000000pt" height="501.000000pt" viewBox="0 0 501.000000 501.000000"
 preserveAspectRatio="xMidYMid meet">
<metadata>
Created by potrace 1.14, written by Peter Selinger 2001-2017
</metadata>
<g transform="translate(0.000000,501.000000) scale(0.100000,-0.100000)"
fill="#000000" stroke="none">
<path d="M2675 4982 c-63 -30 -196 -127 -253 -183 -33 -32 -35 -33 -140 -36
-637 -19 -1239 -315 -1640 -806 -127 -155 -256 -373 -323 -542 -12 -33 -26
-63 -29 -68 -3 -4 -28 -3 -56 2 -27 5 -69 12 -94 16 -25 3 -62 10 -83 15 -32
7 -39 5 -45 -8 -8 -23 -8 -487 1 -637 7 -122 21 -239 33 -269 3 -9 18 -16 33
-17 32 -1 84 -9 89 -14 2 -2 6 -21 8 -42 4 -36 22 -154 30 -198 2 -11 9 -41
15 -67 9 -40 7 -69 -15 -190 -33 -189 -38 -229 -41 -386 l-2 -132 111 -60
c207 -112 431 -219 483 -233 38 -9 66 -26 100 -58 27 -24 73 -65 103 -89 30
-25 56 -48 58 -52 2 -5 10 -8 18 -8 8 0 14 -4 14 -10 0 -5 6 -10 13 -10 8 0
22 -9 32 -20 10 -11 21 -17 25 -15 5 3 10 1 12 -3 8 -20 236 -142 359 -192
l57 -23 5 -106 c3 -58 8 -117 11 -131 26 -116 36 -130 154 -199 134 -78 386
-172 526 -196 61 -10 151 -7 197 7 106 31 171 164 201 405 11 90 12 93 37 94
14 0 33 2 41 4 8 2 33 6 55 10 78 13 211 46 287 71 70 23 79 24 105 10 72 -37
246 -85 363 -101 25 -3 62 -8 84 -11 53 -8 390 -7 446 1 25 4 50 11 57 16 45
38 202 311 249 435 32 82 37 202 11 272 l-15 43 26 -17 c116 -76 221 -124 272
-124 38 0 127 62 238 165 124 117 125 118 71 168 -125 113 -336 262 -479 338
-44 24 -80 48 -80 55 0 6 19 58 41 115 23 56 42 113 42 126 0 13 4 26 8 29 5
3 7 10 4 15 -4 5 -2 9 3 9 5 0 8 16 7 35 -1 19 3 35 8 35 5 0 7 7 3 15 -3 8 0
15 7 15 8 0 6 4 -3 10 -12 7 -12 10 -1 10 9 0 11 8 7 25 -4 14 -3 25 1 25 5 0
9 28 10 63 3 56 6 65 35 90 73 64 175 165 204 202 40 51 84 138 84 166 0 12
-25 46 -62 83 -63 63 -137 111 -247 163 -58 27 -65 36 -77 90 -1 6 -7 28 -14
48 -12 37 -12 38 37 89 62 64 130 147 171 208 25 36 32 57 32 95 -1 167 -138
402 -391 667 l-94 98 -34 -33 c-35 -35 -191 -265 -191 -282 0 -6 -39 28 -87
74 -49 46 -114 105 -146 129 -48 38 -57 49 -52 70 2 14 7 39 10 55 2 17 18
101 33 188 l29 158 -41 33 c-101 82 -212 132 -388 175 -158 39 -255 51 -458
57 l-165 5 -60 -29z"/>
</g>
</svg>
